<svg width="24" height="24" viewBox="0 0 24 24" fill="none" xmlns="http://www.w3.org/2000/svg">
<path fill-rule="evenodd" clip-rule="evenodd" d="M14.6763 4.50175C15.9133 4.58618 17.4374 5.04167 18.5295 5.60697L18.7419 5.72123L18.832 5.78056C18.9168 5.84571 18.9873 5.92853 19.0378 6.02372C20.26 8.32916 20.9482 10.0867 21.3252 11.719C21.7024 13.3523 21.7595 14.8247 21.7595 16.5274C21.7594 16.7615 21.6493 16.9826 21.4629 17.1243C20.6387 17.7506 19.9337 18.2288 19.1499 18.5921C18.3608 18.9578 17.5242 19.1924 16.4436 19.3721L16.4172 19.3765L16.3411 19.3853C15.9852 19.4077 15.661 19.1739 15.5698 18.8287L15.0974 17.9952C14.9961 17.8163 14.973 17.6029 15.033 17.4063C15.093 17.2099 15.2309 17.0463 15.4146 16.9544L16.4019 16.5007L16.3499 15.7915C16.2038 15.8672 16.043 15.9477 15.8672 16.0258C14.9492 16.4338 13.626 16.7995 12 16.7996C10.3739 16.7995 9.05083 16.4338 8.13281 16.0258C7.95662 15.9475 7.79575 15.8674 7.64941 15.7915L7.59741 16.5007L8.58545 16.9544C8.76682 17.0451 8.90435 17.2056 8.96558 17.399C9.0267 17.5923 9.00673 17.8027 8.91064 17.9812L8.36572 18.992C8.21381 19.2739 7.89948 19.4285 7.5835 19.3765C6.49441 19.197 5.65261 18.9635 4.85962 18.5972C4.2687 18.3243 3.72346 17.9856 3.13843 17.5682L2.53711 17.1243C2.35068 16.9826 2.24135 16.7616 2.24121 16.5274C2.24122 14.8247 2.29761 13.3523 2.6748 11.719C3.05185 10.0867 3.74073 8.32916 4.96289 6.02372L5.01929 5.9329C5.08244 5.84647 5.16399 5.77404 5.25806 5.72123L5.47046 5.60697C6.56261 5.04163 8.08738 4.58614 9.32446 4.50175L9.45044 4.50394C9.74017 4.5331 9.99234 4.72949 10.0869 5.01298L10.2283 5.43852C10.6552 5.33955 11.246 5.2503 12 5.25028C12.754 5.2503 13.3448 5.33956 13.7717 5.43852L13.9138 5.01298L13.9636 4.89726C14.1007 4.64027 14.378 4.4814 14.6763 4.50175ZM8.625 10.5003C7.58956 10.5003 6.75015 11.3399 6.75 12.3753C6.75 13.4108 7.58947 14.2503 8.625 14.2503C9.66053 14.2503 10.5 13.4108 10.5 12.3753C10.4998 11.3399 9.66044 10.5003 8.625 10.5003ZM15.375 10.5003C14.3396 10.5003 13.5002 11.3399 13.5 12.3753C13.5 13.4108 14.3395 14.2503 15.375 14.2503C16.4105 14.2503 17.25 13.4108 17.25 12.3753C17.2498 11.3399 16.4104 10.5003 15.375 10.5003Z" fill="#646360"/>
</svg>
