<svg width="24" height="24" viewBox="0 0 24 24" fill="none" xmlns="http://www.w3.org/2000/svg">
<path d="M18.0768 2.25366C18.4549 2.29216 18.7499 2.61174 18.7499 3V4.5H20.9999C21.2118 4.5 21.4137 4.58978 21.5559 4.74683C21.698 4.90394 21.7674 5.11386 21.7463 5.32471L21.3713 9.07471C21.3329 9.45807 21.0102 9.75 20.6249 9.75H19.8749V18.2864L20.9604 18.8291C21.2145 18.9561 21.3749 19.2159 21.3749 19.5V21C21.3749 21.4142 21.0392 21.75 20.6249 21.75H15.3749C14.9608 21.7499 14.6249 21.4142 14.6249 21V19.5C14.6249 19.216 14.7855 18.9562 15.0395 18.8291L16.1249 18.2864V13.125C16.1249 10.8468 14.2781 9 11.9999 9C9.72182 9.00006 7.87494 10.8469 7.87494 13.125V18.2864L8.96039 18.8291C9.21448 18.9561 9.37494 19.2159 9.37494 19.5V21C9.37494 21.4142 9.03916 21.75 8.62494 21.75H3.37494C2.96078 21.7499 2.62494 21.4142 2.62494 21V19.5L2.63227 19.3945C2.66654 19.1529 2.8173 18.9402 3.03949 18.8291L4.12494 18.2864V9.75H3.37494C2.9897 9.74995 2.66698 9.45804 2.62861 9.07471L2.25361 5.32471C2.23253 5.11389 2.30189 4.90393 2.44404 4.74683C2.58619 4.58977 2.78811 4.50003 2.99994 4.5H5.24994V3L5.25361 2.9231C5.2921 2.54503 5.61173 2.25005 5.99994 2.25H17.9999L18.0768 2.25366Z" fill="#646360"/>
</svg>
