<svg width="24" height="24" viewBox="0 0 24 24" fill="none" xmlns="http://www.w3.org/2000/svg">
<path d="M18.945 3.2455C19.2237 2.93901 19.698 2.91642 20.0045 3.19505C20.311 3.47368 20.3336 3.94802 20.0549 4.25451L14.0245 10.888L20.1197 19.8275C20.2763 20.0572 20.293 20.3547 20.1631 20.6005C20.0332 20.8462 19.778 21 19.5 21H15.75C15.502 21 15.27 20.8774 15.1303 20.6725L10.8443 14.3863L5.05495 20.7545C4.77631 21.061 4.30198 21.0836 3.99549 20.805C3.68899 20.5263 3.66641 20.052 3.94503 19.7455L9.97545 13.112L3.88032 4.17251C3.72371 3.94282 3.707 3.64534 3.8369 3.39956C3.9668 3.15378 4.22199 3.00001 4.49999 3.00001H8.24999C8.49799 3.00001 8.72995 3.1226 8.86966 3.3275L13.1557 9.61374L18.945 3.2455Z" fill="#646360"/>
</svg>
